<?xml version="1.0" encoding="iso-8859-1"?>
<!-- Generator: Adobe Illustrator 19.0.0, SVG Export Plug-In . SVG Version: 6.00 Build 0)  -->
<svg version="1.1" id="Capa_1" xmlns="http://www.w3.org/2000/svg" xmlns:xlink="http://www.w3.org/1999/xlink" x="0px" y="0px"
	 viewBox="0 0 426.667 426.667" style="enable-background:new 0 0 426.667 426.667;" xml:space="preserve">
<rect x="27.964" y="193.325" style="fill:#2D93BA;" width="156.954" height="181.18"/>
<rect x="269.696" y="115.714" style="fill:#1C75A1;" width="156.954" height="258.773"/>
<rect x="128.981" y="38.155" style="fill:#27A2DB;" width="156.954" height="336.341"/>
<rect y="374.487" style="fill:#EBF0F3;" width="426.667" height="14.025"/>
<rect x="158.549" y="300.119" style="fill:#D5D6DB;" width="96.742" height="74.372"/>
<rect x="201.173" y="296.066" style="fill:#27A2DB;" width="11.503" height="78.434"/>
<rect x="368.939" y="134.517" style="fill:#D5D6DB;" width="37.628" height="32.614"/>
<polygon style="fill:#EBF0F3;" points="368.949,167.134 368.949,134.519 406.575,134.519 "/>
<rect x="368.939" y="189.997" style="fill:#D5D6DB;" width="37.628" height="32.614"/>
<polygon style="fill:#EBF0F3;" points="368.949,222.63 368.949,190.015 406.575,190.015 "/>
<rect x="368.939" y="245.506" style="fill:#D5D6DB;" width="37.628" height="32.614"/>
<polygon style="fill:#EBF0F3;" points="368.949,278.125 368.949,245.51 406.575,245.51 "/>
<rect x="368.939" y="301.016" style="fill:#D5D6DB;" width="37.628" height="32.614"/>
<polygon style="fill:#EBF0F3;" points="368.949,333.621 368.949,301.006 406.575,301.006 "/>
<rect x="306.261" y="134.517" style="fill:#D5D6DB;" width="37.628" height="32.614"/>
<polygon style="fill:#EBF0F3;" points="306.257,167.134 306.257,134.519 343.883,134.519 "/>
<rect x="306.261" y="189.997" style="fill:#D5D6DB;" width="37.628" height="32.614"/>
<polygon style="fill:#EBF0F3;" points="306.257,222.63 306.257,190.015 343.883,190.015 "/>
<rect x="306.261" y="245.506" style="fill:#D5D6DB;" width="37.628" height="32.614"/>
<polygon style="fill:#EBF0F3;" points="306.257,278.125 306.257,245.51 343.883,245.51 "/>
<rect x="306.261" y="301.016" style="fill:#D5D6DB;" width="37.628" height="32.614"/>
<polygon style="fill:#EBF0F3;" points="306.257,333.621 306.257,301.006 343.883,301.006 "/>
<rect x="44.454" y="210.093" style="fill:#D5D6DB;" width="23.415" height="20.297"/>
<polygon style="fill:#EBF0F3;" points="44.455,230.409 44.455,210.113 67.869,210.113 "/>
<rect x="44.454" y="243.927" style="fill:#D5D6DB;" width="23.415" height="20.297"/>
<polygon style="fill:#EBF0F3;" points="44.455,264.235 44.455,243.939 67.869,243.939 "/>
<rect x="44.454" y="277.762" style="fill:#D5D6DB;" width="23.415" height="20.297"/>
<polygon style="fill:#EBF0F3;" points="44.455,298.062 44.455,277.766 67.869,277.766 "/>
<rect x="44.454" y="311.597" style="fill:#D5D6DB;" width="23.415" height="20.297"/>
<polygon style="fill:#EBF0F3;" points="44.455,331.888 44.455,311.592 67.869,311.592 "/>
<rect x="85.803" y="210.093" style="fill:#D5D6DB;" width="23.415" height="20.297"/>
<polygon style="fill:#EBF0F3;" points="85.784,230.409 85.784,210.113 109.199,210.113 "/>
<rect x="85.803" y="243.927" style="fill:#D5D6DB;" width="23.415" height="20.297"/>
<polygon style="fill:#EBF0F3;" points="85.784,264.235 85.784,243.939 109.199,243.939 "/>
<rect x="85.803" y="277.762" style="fill:#D5D6DB;" width="23.415" height="20.297"/>
<polygon style="fill:#EBF0F3;" points="85.784,298.062 85.784,277.766 109.199,277.766 "/>
<rect x="85.803" y="311.597" style="fill:#D5D6DB;" width="23.415" height="20.297"/>
<polygon style="fill:#EBF0F3;" points="85.784,331.888 85.784,311.592 109.199,311.592 "/>
<rect x="149.286" y="74.153" style="fill:#F6C358;" width="116.352" height="20.297"/>
<polygon style="fill:#FCD462;" points="149.288,94.449 149.288,74.153 265.652,74.153 "/>
<rect x="149.286" y="108.657" style="fill:#F6C358;" width="116.352" height="20.297"/>
<polygon style="fill:#FCD462;" points="149.288,128.952 149.288,108.656 265.652,108.656 "/>
<rect x="149.286" y="143.157" style="fill:#F6C358;" width="116.352" height="20.297"/>
<polygon style="fill:#FCD462;" points="149.288,163.455 149.288,143.159 265.652,143.159 "/>
<rect x="149.286" y="177.662" style="fill:#F6C358;" width="116.352" height="20.297"/>
<polygon style="fill:#FCD462;" points="149.288,197.959 149.288,177.663 265.652,177.663 "/>
<rect x="149.286" y="212.166" style="fill:#F6C358;" width="116.352" height="20.297"/>
<polygon style="fill:#FCD462;" points="149.288,232.462 149.288,212.166 265.652,212.166 "/>
<rect x="149.286" y="246.671" style="fill:#F6C358;" width="116.352" height="20.297"/>
<polygon style="fill:#FCD462;" points="149.288,266.965 149.288,246.669 265.652,246.669 "/>
<g>
</g>
<g>
</g>
<g>
</g>
<g>
</g>
<g>
</g>
<g>
</g>
<g>
</g>
<g>
</g>
<g>
</g>
<g>
</g>
<g>
</g>
<g>
</g>
<g>
</g>
<g>
</g>
<g>
</g>
</svg>
