<?xml version="1.0" encoding="iso-8859-1"?>
<!-- Generator: Adobe Illustrator 19.0.0, SVG Export Plug-In . SVG Version: 6.00 Build 0)  -->
<svg version="1.1" id="Layer_1" xmlns="http://www.w3.org/2000/svg" xmlns:xlink="http://www.w3.org/1999/xlink" x="0px" y="0px"
	 viewBox="0 0 512 512" style="enable-background:new 0 0 512 512;" xml:space="preserve">
<polygon style="fill:#C9E3F7;" points="406.976,446.359 406.976,406.974 288.822,406.974 288.822,275.692 406.976,275.692 
	406.976,236.308 288.822,236.308 288.822,105.026 406.976,105.026 406.976,65.641 249.437,65.641 249.437,236.308 110.277,236.308 
	110.277,275.692 249.437,275.692 249.437,446.359 "/>
<polygon style="fill:#78B9EB;" points="406.976,105.026 406.976,65.641 269.128,65.641 269.128,446.359 406.976,446.359 
	406.976,406.974 288.822,406.974 288.822,275.692 406.976,275.692 406.976,236.308 288.822,236.308 288.822,105.026 "/>
<g>
	<rect x="380.718" y="19.692" style="fill:#FF5023;" width="131.282" height="131.282"/>
	<rect x="380.718" y="190.359" style="fill:#FF5023;" width="131.282" height="131.282"/>
	<rect x="380.718" y="361.026" style="fill:#FF5023;" width="131.282" height="131.282"/>
</g>
<g>
	<rect x="446.359" y="19.692" style="fill:#D80027;" width="65.641" height="131.282"/>
	<rect x="446.359" y="190.359" style="fill:#D80027;" width="65.641" height="131.282"/>
	<rect x="446.359" y="361.026" style="fill:#D80027;" width="65.641" height="131.282"/>
</g>
<rect y="177.231" style="fill:#FFDA44;" width="157.538" height="157.538"/>
<rect x="78.769" y="177.231" style="fill:#FF9811;" width="78.769" height="157.538"/>
<g>
</g>
<g>
</g>
<g>
</g>
<g>
</g>
<g>
</g>
<g>
</g>
<g>
</g>
<g>
</g>
<g>
</g>
<g>
</g>
<g>
</g>
<g>
</g>
<g>
</g>
<g>
</g>
<g>
</g>
</svg>
