<?xml version="1.0" encoding="iso-8859-1"?>
<!-- Generator: Adobe Illustrator 19.0.0, SVG Export Plug-In . SVG Version: 6.00 Build 0)  -->
<svg version="1.1" id="Layer_1" xmlns="http://www.w3.org/2000/svg" xmlns:xlink="http://www.w3.org/1999/xlink" x="0px" y="0px"
	 viewBox="0 0 511.999 511.999" style="enable-background:new 0 0 511.999 511.999;" xml:space="preserve">
<g>
	<rect x="35.813" y="79.585" style="fill:#957755;" width="118.051" height="160.496"/>
	<rect x="198.962" y="79.585" style="fill:#957755;" width="118.051" height="160.496"/>
</g>
<rect x="360.784" y="79.585" style="fill:#896646;" width="118.051" height="160.496"/>
<g>
	<rect x="35.813" y="265.282" style="fill:#957755;" width="118.051" height="167.128"/>
	<rect x="198.962" y="265.282" style="fill:#957755;" width="118.051" height="167.128"/>
</g>
<rect x="360.784" y="265.282" style="fill:#896646;" width="118.051" height="167.128"/>
<g>
	<rect x="360.797" y="86.469" style="fill:#806749;" width="118.051" height="160.496"/>
	<rect x="360.797" y="270.84" style="fill:#806749;" width="118.051" height="167.128"/>
	<rect x="257.96" y="86.707" style="fill:#806749;" width="59.056" height="160.496"/>
	<rect x="257.96" y="271.928" style="fill:#806749;" width="59.056" height="160.496"/>
</g>
<g>
	<path style="fill:#A78967;" d="M482.272,14.592H259.722H29.721C13.333,14.592,0,27.926,0,44.314v45.343
		c0,16.388,13.333,29.722,29.721,29.722h228.241h224.311c16.388,0,29.722-13.333,29.722-29.722V44.314
		C511.995,27.926,498.66,14.592,482.272,14.592z"/>
	<path style="fill:#A78967;" d="M482.272,200.289H257.959H29.721C13.333,200.289,0,213.624,0,230.012v45.343
		c0,16.388,13.333,29.722,29.721,29.722h228.237h224.313c16.388,0,29.722-13.333,29.722-29.722v-45.343
		C511.995,213.624,498.66,200.289,482.272,200.289z"/>
	<path style="fill:#A78967;" d="M482.272,392.619H257.956H29.721C13.333,392.619,0,405.953,0,422.341v45.343
		c0,16.388,13.333,29.722,29.721,29.722h227.17h225.381c16.388,0,29.722-13.333,29.722-29.722v-45.343
		C511.995,405.953,498.66,392.619,482.272,392.619z"/>
</g>
<g>
	<path style="fill:#957755;" d="M482.274,392.62H257.959l0.342,104.786h223.974c16.388,0,29.722-13.333,29.722-29.722v-45.342
		C511.996,405.955,498.663,392.62,482.274,392.62z"/>
	<path style="fill:#957755;" d="M482.272,200.289H257.958l-0.004,104.786h224.319c16.388,0,29.722-13.333,29.722-29.722V230.01
		C511.995,213.622,498.662,200.289,482.272,200.289z"/>
	<path style="fill:#957755;" d="M482.278,14.593H257.962l-0.004,104.786h224.319c16.388,0,29.722-13.333,29.722-29.722V44.314
		C512,27.926,498.666,14.593,482.278,14.593z"/>
</g>
<g>
</g>
<g>
</g>
<g>
</g>
<g>
</g>
<g>
</g>
<g>
</g>
<g>
</g>
<g>
</g>
<g>
</g>
<g>
</g>
<g>
</g>
<g>
</g>
<g>
</g>
<g>
</g>
<g>
</g>
</svg>
