<?xml version="1.0" encoding="iso-8859-1"?>
<!-- Generator: Adobe Illustrator 19.0.0, SVG Export Plug-In . SVG Version: 6.00 Build 0)  -->
<svg version="1.1" id="Layer_1" xmlns="http://www.w3.org/2000/svg" xmlns:xlink="http://www.w3.org/1999/xlink" x="0px" y="0px"
	 viewBox="0 0 512.248 512.248" style="enable-background:new 0 0 512.248 512.248;" xml:space="preserve">
<g>
	<path style="fill:#F1543F;" d="M396.8,506.212l-44.8,4.267c-11.733,1.067-22.4-7.467-23.467-19.2l-6.4-57.6l86.4-9.6l6.4,57.6
		C417.067,494.479,408.533,505.145,396.8,506.212z"/>
	<path style="fill:#F1543F;" d="M115.2,506.212l44.8,4.267c11.733,1.067,22.4-7.467,23.467-19.2l6.4-57.6l-86.4-9.6L96,482.745
		C94.933,494.479,103.467,505.145,115.2,506.212z"/>
</g>
<g>
	<path style="fill:#ED3F2E;" d="M102.4,425.145l86.4,9.6l-5.333,56.533c-30.933-8.533-59.733-21.333-84.267-39.467L102.4,425.145z"
		/>
	<path style="fill:#ED3F2E;" d="M412.8,451.812c-24.533,18.133-52.267,30.933-83.2,39.467l-6.4-56.533l86.4-9.6L412.8,451.812z"/>
</g>
<path style="fill:#FF7058;" d="M480,283.279c-8.533-97.067-105.6-174.933-224-174.933c-30.933,0-60.8,5.333-87.467,14.933
	c-34.133-19.2-72.533-20.267-105.6-2.133c-5.333,3.2-4.267,11.733,2.133,12.8c20.267,1.067,35.2,9.6,44.8,20.267
	c-32,22.4-55.467,53.333-68.267,87.467H22.4c-12.8,0-22.4,10.667-22.4,22.4v66.133c0,11.733,10.667,22.4,22.4,22.4h18.133
	c28.8,76.8,114.133,132.267,215.467,132.267c107.733,0,198.4-64,219.733-149.333c9.6,4.267,19.2,12.8,25.6,25.6
	c2.133,5.333,9.6,3.2,10.667-2.133C514.133,330.212,502.4,302.479,480,283.279z"/>
<circle style="fill:#FFD15C;" cx="332.8" cy="68.879" r="42.667"/>
<circle style="fill:#F8B64C;" cx="332.8" cy="68.879" r="34.133"/>
<g>
	<path style="fill:#FFD15C;" d="M329.6,83.812V69.945c-4.267-1.067-7.467-3.2-9.6-5.333s-3.2-5.333-3.2-8.533
		c0-3.2,1.067-6.4,3.2-8.533c3.2-2.133,6.4-4.267,9.6-4.267v-3.2h4.267v3.2c3.2,0,6.4,1.067,8.533,3.2
		c2.133,2.133,3.2,4.267,4.267,7.467l-8.533,1.067c0-2.133-2.133-4.267-4.267-5.333v12.8c5.333,1.067,8.533,3.2,10.667,5.333
		c2.133,2.133,3.2,5.333,3.2,8.533c0,4.267-1.067,7.467-3.2,9.6c-2.133,2.133-5.333,4.267-9.6,5.333v5.333h-4.267v-5.333
		c-3.2,0-6.4-2.133-8.533-4.267s-4.267-5.333-4.267-9.6l8.533-1.067c0,2.133,1.067,3.2,2.133,4.267
		C327.467,81.679,328.533,82.745,329.6,83.812z M329.6,49.679c-1.067,0-2.133,1.067-3.2,2.133c-1.067,1.067-1.067,2.133-1.067,3.2
		c0,1.067,0,2.133,1.067,3.2c1.067,1.067,2.133,2.133,3.2,2.133V49.679z M334.933,83.812c1.067,0,3.2-1.067,4.267-2.133
		c1.067-1.067,1.067-2.133,1.067-4.267c0-1.067,0-2.133-1.067-3.2c-1.067-1.067-2.133-2.133-4.267-2.133V83.812z"/>
	<circle style="fill:#FFD15C;" cx="215.467" cy="44.345" r="42.667"/>
</g>
<circle style="fill:#F8B64C;" cx="215.467" cy="44.345" r="34.133"/>
<path style="fill:#FFD15C;" d="M213.333,59.279v-12.8c-4.267-1.067-7.467-3.2-9.6-5.333c-2.133-2.133-3.2-5.333-3.2-8.533
	s1.067-6.4,3.2-8.533c2.133-2.133,5.333-3.2,8.533-4.267v-3.2h4.267v3.2c3.2,0,6.4,1.067,8.533,3.2
	c2.133,2.133,3.2,4.267,4.267,7.467l-8.533,1.067c0-2.133-2.133-4.267-4.267-5.333v12.8c5.333,1.067,8.533,3.2,10.667,5.333
	c2.133,2.133,3.2,5.333,3.2,8.533c0,4.267-1.067,7.467-3.2,9.6c-2.133,2.133-5.333,4.267-9.6,5.333v6.4h-4.267v-7.467
	c-3.2,0-6.4-2.133-8.533-4.267c-2.133-2.133-4.267-5.333-4.267-9.6l8.533-1.067c0,2.133,1.067,3.2,2.133,4.267
	C210.133,58.212,211.2,59.279,213.333,59.279z M213.333,26.212c-1.067,0-2.133,1.067-3.2,2.133c-1.067,1.067-1.067,2.133-1.067,3.2
	c0,1.067,0,2.133,1.067,3.2s2.133,2.133,3.2,2.133V26.212z M217.6,60.345c1.067,0,3.2-1.067,4.267-2.133
	c1.067-1.067,1.067-2.133,1.067-4.267c0-1.067,0-2.133-1.067-3.2c-1.067-1.067-2.133-2.133-4.267-2.133V60.345z"/>
<circle style="fill:#40596B;" cx="100.267" cy="252.345" r="21.333"/>
<path style="fill:#FFD15C;" d="M296.533,160.612c6.4-8.533,9.6-18.133,9.6-29.867c0-27.733-22.4-50.133-50.133-50.133
	s-50.133,22.4-50.133,50.133c0,10.667,3.2,21.333,9.6,29.867H296.533z"/>
<path style="fill:#F8B64C;" d="M227.2,160.612h56.533c7.467-7.467,12.8-18.133,12.8-29.867c0-22.4-18.133-40.533-40.533-40.533
	s-40.533,18.133-40.533,40.533C215.467,142.479,219.733,153.145,227.2,160.612z"/>
<path style="fill:#FFD15C;" d="M249.6,145.679c-1.067-1.067-2.133-3.2-2.133-5.333l-9.6,1.067c1.067,5.333,2.133,8.533,5.333,11.733
	s6.4,4.267,10.667,5.333v2.133h5.333v-3.2c5.333-1.067,8.533-2.133,11.733-5.333c3.2-3.2,4.267-6.4,4.267-11.733
	c0-4.267-1.067-7.467-3.2-9.6s-6.4-4.267-11.733-6.4v-14.933c2.133,1.067,4.267,3.2,4.267,6.4l9.6-1.067
	c-1.067-4.267-2.133-6.4-4.267-8.533s-5.333-3.2-9.6-4.267v-4.267h-5.333v3.2c-4.267,0-7.467,2.133-10.667,5.333
	c-2.133,3.2-4.267,6.4-4.267,10.667s1.067,7.467,3.2,10.667c2.133,3.2,6.4,5.333,10.667,6.4v16
	C251.733,148.879,250.667,147.812,249.6,145.679z M259.2,135.012c2.133,1.067,4.267,1.067,5.333,3.2
	c1.067,1.067,1.067,2.133,1.067,4.267s-1.067,3.2-2.133,5.333c-1.067,1.067-3.2,2.133-4.267,2.133V135.012z M249.6,120.079
	c-1.067-1.067-1.067-2.133-1.067-3.2s0-3.2,1.067-4.267c1.067-1.067,2.133-2.133,3.2-2.133v12.8
	C251.733,122.212,250.667,121.145,249.6,120.079z"/>
<path style="fill:#40596B;" d="M347.733,176.612H164.267c-5.333,0-8.533-4.267-8.533-8.533l0,0c0-5.333,4.267-8.533,8.533-8.533
	h183.467c5.333,0,8.533,4.267,8.533,8.533l0,0C356.267,172.345,353.067,176.612,347.733,176.612z"/>
<g>
</g>
<g>
</g>
<g>
</g>
<g>
</g>
<g>
</g>
<g>
</g>
<g>
</g>
<g>
</g>
<g>
</g>
<g>
</g>
<g>
</g>
<g>
</g>
<g>
</g>
<g>
</g>
<g>
</g>
</svg>
