<?xml version="1.0" encoding="iso-8859-1"?>
<!-- Generator: Adobe Illustrator 19.0.0, SVG Export Plug-In . SVG Version: 6.00 Build 0)  -->
<svg version="1.1" id="Capa_1" xmlns="http://www.w3.org/2000/svg" xmlns:xlink="http://www.w3.org/1999/xlink" x="0px" y="0px"
	 viewBox="0 0 508.444 508.444" style="enable-background:new 0 0 508.444 508.444;" xml:space="preserve">
<g transform="matrix(1.25 0 0 -1.25 0 45)">
	<g>
		<g>
			<path style="fill:#292F33;" d="M284.444-304.042c-31.289,0-22.756,68.267-22.756,68.267c0,12.561,30.106,22.756,42.667,22.756
				c12.572,0,36.978,1.195,36.978-11.378C341.333-224.398,315.733-304.042,284.444-304.042"/>
			<path style="fill:#66757F;" d="M318.578-315.42c-31.289,0-22.756,68.267-22.756,68.267c0,12.561,30.106,22.756,42.667,22.756
				c12.572,0,36.978,1.183,36.978-11.378C375.467-235.775,349.867-315.42,318.578-315.42"/>
			<path style="fill:#292F33;" d="M159.289-304.042c-31.289,0-45.511,68.267-45.511,68.267c0,12.561,30.106,22.756,42.667,22.756
				c12.572,0,36.978,1.195,36.978-11.378C193.422-224.398,190.578-304.042,159.289-304.042"/>
			<path style="fill:#66757F;" d="M193.422-315.42c-31.289,0-45.511,68.267-45.511,68.267c0,12.561,30.106,22.756,42.667,22.756
				c12.572,0,36.978,1.183,36.978-11.378C227.556-235.775,224.711-315.42,193.422-315.42"/>
			<path style="fill:#E1E8ED;" d="M406.756-149.122c0-88.542-51.143-129.798-165.194-129.798
				c-114.039,0-153.384,41.256-153.384,129.798c0,88.553,39.344,129.786,153.384,129.786
				C355.612-19.336,406.756-60.569,406.756-149.122"/>
			<path style="fill:#99AAB5;" d="M193.422-106.831c0-106.189-52.964-128.944-101.922-128.944
				c-48.97,0-80.122,75.548-80.122,128.944c0,53.407,31.152,64.478,80.122,64.478C140.459-42.353,193.422-53.424,193.422-106.831"/>
			<path style="fill:#292F33;" d="M68.267-139.064c0-9.421-7.634-17.067-17.067-17.067s-17.067,7.646-17.067,17.067
				c0,9.421,7.634,17.067,17.067,17.067S68.267-129.643,68.267-139.064"/>
			<path style="fill:#E1E8ED;" d="M179.2-50.886c-19.911-36.978-24.212-29.65-81.101-52.406C63.09-117.298,0-113.464,0-59.42
				c0,21.993,41.95,28.444,79.644,28.444C117.35-30.975,198.076-15.831,179.2-50.886"/>
			<path style="fill:#FFCC4D;" d="M182.044-61.65c38.15-27.614,61.781-69.848,42.371-126.168
				c-15.565-45.136-77.562-35.453-109.42-12.823c-31.835,22.619-30.06,54.522-19.718,71.578
				c10.342,17.033,47.309,13.972,68.54-1.104c10.627-7.543,3.277-17.738-8.192-12.151c-26.078,12.72-34.554-16.43-14.177-32.791
				c14.393-11.56,37.251-11.935,41.586,11.492c7.634,41.29-39.879,71.384-84.935,60.314
				C125.156-87.864,149.743-38.268,182.044-61.65"/>
		</g>
	</g>
</g>
<g>
</g>
<g>
</g>
<g>
</g>
<g>
</g>
<g>
</g>
<g>
</g>
<g>
</g>
<g>
</g>
<g>
</g>
<g>
</g>
<g>
</g>
<g>
</g>
<g>
</g>
<g>
</g>
<g>
</g>
</svg>
