<?xml version="1.0" encoding="utf-8"?>
<!-- Generator: Adobe Illustrator 18.1.1, SVG Export Plug-In . SVG Version: 6.00 Build 0)  -->
<svg version="1.1" id="Reinzeichnung" xmlns="http://www.w3.org/2000/svg" xmlns:xlink="http://www.w3.org/1999/xlink" x="0px"
	 y="0px" viewBox="0 0 280.63 220.805" enable-background="new 0 0 280.63 220.805" xml:space="preserve">
<g>
	<path fill="#E20020" d="M55.943,92.621l11.285,16.262l10.14-16.262h18.81v5.385h-2.967c-0.957,0-1.617,0.054-1.978,0.16
		c-0.362,0.107-0.653,0.332-0.873,0.676c-0.22,0.344-0.356,0.758-0.408,1.242c-0.052,0.484-0.077,1.561-0.077,3.233v12.17
		c0,1.672,0.025,2.75,0.077,3.233c0.052,0.484,0.188,0.898,0.408,1.242c0.219,0.344,0.514,0.569,0.882,0.676
		c0.368,0.106,1.024,0.159,1.968,0.159h2.967v5.385H73.82v-5.385h1.532c0.944,0,1.6-0.053,1.969-0.159
		c0.368-0.107,0.662-0.332,0.882-0.676c0.22-0.344,0.355-0.754,0.407-1.229c0.052-0.475,0.078-1.557,0.078-3.246v-13.033
		l-13.206,23.728h-2.575l-13.506-22.745v12.074c0,1.672,0.026,2.746,0.078,3.221c0.052,0.476,0.181,0.885,0.388,1.229
		c0.219,0.344,0.514,0.574,0.882,0.688c0.369,0.115,1.024,0.172,1.968,0.172h2.424v5.36H36.047v-5.385h2.967
		c0.944,0,1.6-0.053,1.968-0.159c0.369-0.107,0.663-0.332,0.883-0.676c0.22-0.344,0.355-0.754,0.407-1.229
		c0.052-0.475,0.077-1.557,0.077-3.246v-12.17c0-1.688-0.025-2.77-0.077-3.245c-0.052-0.475-0.188-0.885-0.407-1.229
		c-0.22-0.344-0.511-0.569-0.873-0.676c-0.362-0.106-1.021-0.16-1.978-0.16h-2.967v-5.385H55.943z"/>
	<path fill="#E20020" d="M153.038,92.621l14.178,24.538c0.814,1.639,1.47,2.659,1.969,3.061c0.496,0.402,1.354,0.603,2.567,0.603
		h1.456v5.36h-21.961v-5.36h3.132c1.344,0,2.017-0.377,2.017-1.131c0-0.246-0.154-0.704-0.467-1.376l-2.332-3.978h-12.869
		l-1.581,3.388c-0.388,0.853-0.582,1.418-0.582,1.697c0,0.525,0.155,0.889,0.465,1.094c0.311,0.205,0.854,0.308,1.629,0.308h4.437
		v5.36h-16.956v-5.385h1.105c1.267,0,1.579-0.254,2.155-0.762c0.575-0.508,1.386-1.787,2.434-3.836l12.139-23.579H153.038z
		 M146.892,101.531l-4.567,8.94h9.57L146.892,101.531z"/>
	<path fill="#E20020" d="M210.581,92.621v5.36h-1.105c-1.15,0-2.397,0.205-2.889,0.615c-0.492,0.41-1.401,1.49-2.165,3.079
		l-12.655,24.507h-6.122l-15.01-24.587c-0.764-1.475-1.428-2.446-1.996-2.913c-0.57-0.467-1.371-0.701-2.405-0.701h-1.648v-5.36
		h23.39v5.36h-1.318c-1.254,0-1.538,0.058-2.017,0.172c-0.841,0.181-1.26,0.631-1.26,1.353c0,0.56,0.437,1.106,0.929,2.089
		l7.018,10.268l5.283-9.822c0.633-1.376,1.096-2.256,1.096-2.731c0-0.885-0.686-1.328-2.055-1.328h-2.929v-5.36H210.581z"/>
	<path fill="#E20020" d="M219.499,115.487v-12.17c0-1.672-0.025-2.749-0.077-3.233c-0.052-0.483-0.188-0.897-0.408-1.242
		c-0.22-0.344-0.511-0.569-0.872-0.676c-0.362-0.106-1.021-0.16-1.979-0.16h-2.967v-5.385h23.329v5.385h-2.967
		c-0.956,0-1.615,0.054-1.978,0.16c-0.362,0.107-0.653,0.332-0.873,0.676s-0.355,0.758-0.407,1.242
		c-0.052,0.484-0.077,1.561-0.077,3.233v12.17c0,1.672,0.025,2.75,0.077,3.233c0.052,0.484,0.188,0.898,0.407,1.242
		c0.22,0.344,0.514,0.569,0.883,0.676c0.368,0.106,1.024,0.159,1.968,0.159h2.967v5.385h-23.329v-5.385h2.967
		c0.944,0,1.601-0.053,1.969-0.159c0.369-0.107,0.662-0.332,0.882-0.676c0.221-0.344,0.356-0.758,0.408-1.242
		C219.473,118.237,219.499,117.159,219.499,115.487z"/>
	<path fill="#E20020" d="M107.712,115.487v-12.17c0-1.672-0.026-2.749-0.077-3.233c-0.052-0.483-0.188-0.897-0.408-1.242
		c-0.219-0.344-0.51-0.569-0.872-0.676c-0.362-0.106-1.022-0.16-1.978-0.16h-2.967v-5.385h23.329v5.385h-2.967
		c-0.956,0-1.615,0.054-1.977,0.16c-0.362,0.107-0.653,0.332-0.873,0.676c-0.22,0.344-0.356,0.758-0.407,1.242
		c-0.052,0.484-0.077,1.561-0.077,3.233v12.17c0,1.672,0.025,2.75,0.077,3.233c0.051,0.484,0.187,0.898,0.407,1.242
		c0.22,0.344,0.513,0.569,0.883,0.676c0.368,0.106,1.024,0.159,1.967,0.159h2.967v5.385h-23.329v-5.385h2.967
		c0.943,0,1.6-0.053,1.968-0.159c0.369-0.107,0.663-0.332,0.882-0.676c0.22-0.344,0.356-0.758,0.408-1.242
		C107.685,118.237,107.712,117.159,107.712,115.487z"/>
	<path fill="#E20020" d="M280.63,92.621v11.229h-5.934v-1.795c0-1.186-0.291-1.902-0.873-2.771
		c-0.582-0.869-1.629-1.303-3.141-1.303h-4.459v17.506c0,1.672,0.025,2.75,0.077,3.233c0.052,0.484,0.188,0.898,0.407,1.242
		c0.22,0.344,0.515,0.569,0.883,0.676c0.368,0.106,1.023,0.159,1.968,0.159h2.967v5.385h-23.6v-5.385h2.966
		c0.943,0,1.601-0.053,1.969-0.159c0.368-0.107,0.662-0.332,0.883-0.676c0.219-0.344,0.355-0.754,0.406-1.229
		c0.052-0.475,0.078-1.557,0.078-3.246V97.981h-4.207c-1.655,0-2.806,0.455-3.451,1.365c-0.646,0.91-0.97,1.756-0.97,2.955v1.549
		H240.8V92.621H280.63z"/>
</g>
<path fill="#E20020" d="M219.318,137.325l-40.282,0.161c-10.312,32.871-42.054,57.686-76.697,60.584
	c-37.865,3.385-72.831-17.562-88.299-49.466C1.472,124.596,2.599,91.564,16.134,68.2c17.725-31.097,51.562-49.466,88.621-45.438
	c33.837,3.544,62.841,27.553,73.798,58.49h37.543l3.061-0.161c-1.288-4.995-3.061-9.829-4.994-14.663
	C194.989,22.118,147.131-5.758,96.699,1.009C51.099,6.81,12.428,42.097,2.599,86.408c-10.151,46.083,10.313,91.199,46.083,115.209
	c22.075,14.982,49.95,21.912,78.792,18.205c42.86-5.639,81.693-39.798,92.007-81.691
	C219.481,137.808,219.641,137.486,219.318,137.325z"/>
</svg>
